<?xml version="1.0" standalone="no"?>
<!DOCTYPE svg PUBLIC "-//W3C//DTD SVG 20010904//EN"
 "http://www.w3.org/TR/2001/REC-SVG-20010904/DTD/svg10.dtd">
<svg version="1.0" xmlns="http://www.w3.org/2000/svg"
 width="4484.000000pt" height="1782.000000pt" viewBox="0 0 4484.000000 1782.000000"
 preserveAspectRatio="xMidYMid meet">

<g transform="translate(0.000000,1782.000000) scale(0.100000,-0.100000)"
fill="#001668" stroke="none">
<path d="M2680 17811 c0 -13 -17 -130 -175 -1176 -137 -909 -416 -2766 -845
-5620 -188 -1249 -269 -1792 -370 -2460 -55 -368 -145 -967 -200 -1330 -55
-363 -158 -1051 -230 -1530 -220 -1462 -544 -3618 -666 -4430 -64 -424 -133
-880 -153 -1015 l-37 -245 21045 -3 c11574 -1 21046 -1 21047 1 3 3 181 1154
659 4272 190 1238 415 2703 620 4040 102 666 246 1604 320 2085 74 481 231
1507 350 2280 119 773 254 1653 300 1955 46 303 174 1137 285 1855 110 717
200 1310 200 1317 0 11 -3820 13 -21075 13 -13228 0 -21075 -4 -21075 -9z
m27420 -2577 c0 -3 -62 -70 -137 -147 -137 -141 -292 -301 -558 -577 -77 -80
-201 -208 -275 -285 -215 -222 -442 -458 -815 -845 -77 -79 -201 -208 -275
-285 -75 -77 -197 -203 -271 -280 -210 -218 -402 -417 -549 -570 -75 -77 -199
-205 -275 -285 -77 -79 -201 -208 -275 -285 -132 -136 -264 -273 -548 -567
-75 -78 -198 -206 -272 -283 -75 -77 -199 -205 -275 -285 -77 -79 -201 -208
-275 -285 -75 -77 -197 -203 -271 -280 -181 -188 -385 -400 -549 -570 -75 -77
-201 -207 -280 -290 -80 -82 -199 -205 -265 -273 -113 -116 -119 -124 -106
-145 8 -12 959 -1371 2114 -3020 1154 -1649 2097 -3000 2095 -3002 -1 -1 -959
-6 -2128 -9 -1169 -3 -2305 -9 -2525 -12 l-401 -6 -40 58 c-23 33 -279 403
-570 824 -290 421 -677 980 -859 1243 -181 262 -397 574 -478 692 -82 118
-152 215 -156 215 -8 0 -190 -183 -1011 -1020 -300 -305 -673 -685 -830 -845
-752 -764 -867 -881 -1010 -1028 l-153 -157 -2510 0 -2509 0 27 33 c15 17 93
100 173 182 81 83 209 215 287 295 309 321 435 451 569 590 229 237 564 584
841 870 77 80 207 215 290 300 82 85 212 220 290 300 77 80 204 212 282 293
292 302 431 446 568 587 77 80 204 212 282 293 520 538 816 845 1128 1167 77
80 206 214 287 298 81 84 214 221 295 305 81 83 208 215 282 292 75 77 175
181 224 231 l89 92 -923 1293 c-507 712 -1055 1480 -1217 1707 l-294 412
-2319 0 c-1275 0 -2319 -2 -2319 -5 0 -2 123 -177 273 -387 150 -211 415 -581
587 -823 229 -320 314 -447 313 -465 -1 -14 -40 -275 -87 -580 -181 -1176
-647 -4214 -876 -5707 -132 -859 -240 -1564 -240 -1567 0 -3 -929 -6 -2065 -6
l-2065 0 5 23 c2 12 212 1318 465 2902 254 1584 593 3709 755 4721 162 1013
295 1845 295 1848 0 3 -880 6 -1955 6 -1542 0 -1955 3 -1955 12 0 17 510 3019
516 3041 5 16 338 17 6815 17 l6809 0 45 -62 c51 -72 403 -570 540 -763 50
-71 184 -260 297 -420 226 -320 623 -882 901 -1275 100 -140 240 -338 312
-440 72 -102 173 -245 224 -317 86 -121 113 -149 123 -124 2 5 696 705 1543
1556 847 851 1614 1623 1704 1716 l165 169 2478 0 c1363 0 2478 -3 2478 -6z
m1646 -2426 c70 -101 209 -300 309 -443 100 -143 255 -366 345 -495 90 -129
262 -377 384 -550 381 -546 572 -820 931 -1335 316 -454 781 -1120 1165 -1670
81 -115 220 -316 310 -445 157 -225 304 -435 970 -1390 163 -234 438 -627 610
-875 302 -433 466 -668 1117 -1600 556 -797 899 -1290 917 -1317 l18 -28
-2063 1 -2064 0 -200 286 c-216 309 -507 724 -975 1388 l-295 420 -1125 -2
c-619 -1 -1483 -4 -1920 -7 l-795 -6 -842 1198 -842 1197 1924 5 1923 5 -312
440 c-172 242 -611 861 -976 1375 -365 514 -762 1074 -883 1244 l-219 308 154
157 c165 167 1054 1064 1828 1844 260 262 475 477 476 477 2 0 60 -82 130
-182z"/>
</g>
</svg>
